<svg xmlns="http://www.w3.org/2000/svg" viewBox="0 0 900 650" role="img" aria-labelledby="title desc">
  <title id="title">BMW M340i xDrive</title>
  <desc id="desc">A grey performance sedan styled as BMW M340i xDrive.</desc>
  <defs>
    <linearGradient id="bg" x1="0" y1="0" x2="1" y2="1">
      <stop offset="0" stop-color="#f8fafc"/>
      <stop offset="0.55" stop-color="#dbeafe"/>
      <stop offset="1" stop-color="#94a3b8"/>
    </linearGradient>
    <linearGradient id="paint" x1="0" y1="0" x2="1" y2="1">
      <stop offset="0" stop-color="#d1d5db"/>
      <stop offset="0.5" stop-color="#6b7280"/>
      <stop offset="1" stop-color="#111827"/>
    </linearGradient>
    <linearGradient id="glass" x1="0" y1="0" x2="1" y2="1">
      <stop offset="0" stop-color="#0f172a"/>
      <stop offset="1" stop-color="#020617"/>
    </linearGradient>
    <filter id="shadow" x="-20%" y="-30%" width="140%" height="180%">
      <feDropShadow dx="0" dy="18" stdDeviation="18" flood-color="#020617" flood-opacity="0.35"/>
    </filter>
  </defs>
  <rect width="900" height="650" fill="url(#bg)"/>
  <path d="M80 486 C194 554 704 554 820 486" fill="none" stroke="#64748b" stroke-width="20" stroke-linecap="round" opacity="0.45"/>
  <g filter="url(#shadow)">
    <path d="M116 393 C154 317 228 276 337 254 L562 254 C675 279 753 327 795 396 L812 459 C702 500 203 501 87 459 Z" fill="url(#paint)"/>
    <path d="M282 258 C322 205 377 178 451 176 C528 178 582 205 620 258 Z" fill="#374151"/>
    <path d="M320 257 C354 219 395 201 451 201 C508 201 551 219 584 257 Z" fill="url(#glass)"/>
    <path d="M141 400 L292 379 C311 376 326 385 333 403 L168 428 C148 431 136 419 141 400 Z" fill="#f8fafc"/>
    <path d="M759 400 L608 379 C589 376 574 385 567 403 L732 428 C752 431 764 419 759 400 Z" fill="#f8fafc"/>
    <path d="M360 392 C384 377 416 377 440 392 L440 437 C415 449 385 449 360 437 Z" fill="#020617"/>
    <path d="M460 392 C484 377 516 377 540 392 L540 437 C515 449 485 449 460 437 Z" fill="#020617"/>
    <rect x="383" y="446" width="134" height="39" rx="8" fill="#f8fafc" stroke="#111827" stroke-width="4"/>
    <text x="450" y="472" text-anchor="middle" font-family="Arial, Helvetica, sans-serif" font-size="22" font-weight="800" fill="#111827">M340i</text>
    <rect x="304" y="374" width="54" height="24" rx="3" fill="#f8fafc"/>
    <rect x="307" y="377" width="12" height="18" fill="#2563eb"/>
    <rect x="321" y="377" width="12" height="18" fill="#7c3aed"/>
    <rect x="335" y="377" width="18" height="18" fill="#ef4444"/>
    <circle cx="250" cy="468" r="65" fill="#020617"/>
    <circle cx="250" cy="468" r="38" fill="#9ca3af"/>
    <circle cx="250" cy="468" r="16" fill="#111827"/>
    <circle cx="650" cy="468" r="65" fill="#020617"/>
    <circle cx="650" cy="468" r="38" fill="#9ca3af"/>
    <circle cx="650" cy="468" r="16" fill="#111827"/>
    <path d="M168 447 C287 492 614 492 732 447" fill="none" stroke="#020617" stroke-width="18" stroke-linecap="round"/>
    <path d="M724 432 L790 420" stroke="#ef4444" stroke-width="8" stroke-linecap="round"/>
  </g>
  <text x="54" y="78" font-family="Arial, Helvetica, sans-serif" font-size="34" font-weight="800" fill="#111827">BMW M340i xDrive</text>
  <text x="54" y="118" font-family="Arial, Helvetica, sans-serif" font-size="19" fill="#475569">3.0L inline-six • 374 hp • 500 Nm • xDrive AWD</text>
</svg>
