<svg xmlns="http://www.w3.org/2000/svg" viewBox="0 0 900 650" role="img" aria-labelledby="title desc">
  <title id="title">Volkswagen Virtus GT Plus Sport</title>
  <desc id="desc">A red performance sedan styled as Volkswagen Virtus GT Plus Sport.</desc>
  <defs>
    <linearGradient id="bg" x1="0" y1="0" x2="1" y2="1">
      <stop offset="0" stop-color="#f8fafc"/>
      <stop offset="0.55" stop-color="#e5e7eb"/>
      <stop offset="1" stop-color="#cbd5e1"/>
    </linearGradient>
    <linearGradient id="paint" x1="0" y1="0" x2="1" y2="1">
      <stop offset="0" stop-color="#ef4444"/>
      <stop offset="0.42" stop-color="#b91c1c"/>
      <stop offset="1" stop-color="#450a0a"/>
    </linearGradient>
    <linearGradient id="glass" x1="0" y1="0" x2="1" y2="1">
      <stop offset="0" stop-color="#111827"/>
      <stop offset="1" stop-color="#020617"/>
    </linearGradient>
    <filter id="shadow" x="-20%" y="-30%" width="140%" height="180%">
      <feDropShadow dx="0" dy="18" stdDeviation="18" flood-color="#020617" flood-opacity="0.35"/>
    </filter>
  </defs>
  <rect width="900" height="650" fill="url(#bg)"/>
  <path d="M78 482 C181 552 716 552 822 482" fill="none" stroke="#94a3b8" stroke-width="20" stroke-linecap="round" opacity="0.45"/>
  <g filter="url(#shadow)">
    <path d="M116 384 C151 315 222 276 325 256 L566 256 C670 278 751 322 793 386 L806 456 C701 492 207 494 94 455 Z" fill="url(#paint)"/>
    <path d="M277 259 C314 205 365 177 450 174 C535 177 587 204 624 259 Z" fill="#991b1b"/>
    <path d="M310 257 C345 218 389 201 450 201 C511 201 556 218 591 257 Z" fill="url(#glass)"/>
    <path d="M134 391 L286 375 C305 373 319 381 325 398 L163 421 C145 423 132 411 134 391 Z" fill="#f8fafc"/>
    <path d="M766 391 L614 375 C595 373 581 381 575 398 L737 421 C755 423 768 411 766 391 Z" fill="#f8fafc"/>
    <path d="M332 396 L568 396" stroke="#111827" stroke-width="18" stroke-linecap="round"/>
    <circle cx="450" cy="397" r="34" fill="#f8fafc" stroke="#111827" stroke-width="8"/>
    <path d="M431 382 L443 414 L450 392 L458 414 L470 382" fill="none" stroke="#111827" stroke-width="6" stroke-linecap="round" stroke-linejoin="round"/>
    <rect x="382" y="428" width="136" height="42" rx="8" fill="#f8fafc" stroke="#111827" stroke-width="4"/>
    <text x="450" y="456" text-anchor="middle" font-family="Arial, Helvetica, sans-serif" font-size="26" font-weight="700" fill="#111827">VIRTUS</text>
    <rect x="332" y="376" width="58" height="28" rx="4" fill="#111827"/>
    <text x="361" y="397" text-anchor="middle" font-family="Arial, Helvetica, sans-serif" font-size="18" font-weight="800" fill="#ef4444">GT</text>
    <circle cx="252" cy="465" r="62" fill="#020617"/>
    <circle cx="252" cy="465" r="35" fill="#64748b"/>
    <circle cx="648" cy="465" r="62" fill="#020617"/>
    <circle cx="648" cy="465" r="35" fill="#64748b"/>
    <path d="M174 440 C287 482 613 482 726 440" fill="none" stroke="#020617" stroke-width="18" stroke-linecap="round"/>
    <path d="M146 454 C284 512 615 512 754 454" fill="none" stroke="#ef4444" stroke-width="6" stroke-linecap="round"/>
  </g>
  <text x="54" y="78" font-family="Arial, Helvetica, sans-serif" font-size="32" font-weight="800" fill="#111827">Volkswagen Virtus GT Plus Sport</text>
  <text x="54" y="116" font-family="Arial, Helvetica, sans-serif" font-size="19" fill="#475569">1.5 TSI EVO • 150 PS • 250 Nm • 7-speed DSG</text>
</svg>
